<svg xmlns="http://www.w3.org/2000/svg" viewBox="0 0 540 400"><defs><style>.a{fill:#fff;}</style></defs><path class="a" d="M240.081,143.00672a11.19,11.19,0,0,1,15.60732,0l15.8478,15.41455,31.12926-30.27477a11.191,11.191,0,0,1,15.70079.09145L343.5239,153.2844h20.08051v-59.328a35.89587,35.89587,0,0,0-35.89593-35.89587h-115.417a35.89582,35.89582,0,0,0-35.89587,35.89587v69.61375h42.54166Zm-33.16214-38.144a16.279,16.279,0,1,1,16.279,16.279A16.279,16.279,0,0,1,206.91882,104.8627Z"/><path class="a" d="M363.60441,184.9548v-9.28672H338.9037a11.1876,11.1876,0,0,1-7.89508-3.261l-20.631-20.53756-31.03788,30.18535a11.19011,11.19011,0,0,1-15.60732,0l-15.8478-15.41461-16.599,16.14386a11.19042,11.19042,0,0,1-7.80363,3.16956H176.44607a35.8722,35.8722,0,0,0,35.84545,34.897h115.417A35.896,35.896,0,0,0,363.60441,184.9548Z"/><path class="a" d="M46.93229,292.96643a36.23569,36.23569,0,0,0-8.907-.82039H30v46.93585h7.08272v-19.0603h3.283q7.32609,0,11.64294-3.76927A12.8667,12.8667,0,0,0,56.326,306.03867a13.35962,13.35962,0,0,0-4.04356-9.97125A11.95381,11.95381,0,0,0,46.93229,292.96643ZM39.7274,313.45554H37.08272V298.68167h2.341q10.061,0,10.062,7.26574Q49.4857,313.456,39.7274,313.45554Z"/><path class="a" d="M74.8996,308.65293a15.38161,15.38161,0,0,0-11.18712,4.49839,14.71541,14.71541,0,0,0-4.58966,10.91333,15.33622,15.33622,0,0,0,4.4984,11.30881,15.04747,15.04747,0,0,0,11.15669,4.55924,15.694,15.694,0,0,0,11.33923-4.468,15.85532,15.85532,0,0,0,.03042-22.283A15.46833,15.46833,0,0,0,74.8996,308.65293Zm6.414,22.5862a9.2138,9.2138,0,0,1-12.8279-.03042,9.98441,9.98441,0,0,1-2.37187-7.02237,9.51133,9.51133,0,0,1,2.43271-6.74858,9.10069,9.10069,0,0,1,12.76706,0,11.116,11.116,0,0,1,0,13.80137Z"/><path class="a" d="M107.85155,320.38664q-3.95229-1.67217-3.9518-3.37478a2.08412,2.08412,0,0,1,.66926-1.59563,2.2787,2.2787,0,0,1,1.61036-.62315q1.97688,0,3.31394,2.73594l5.6544-3.00973q-2.76734-5.86587-8.45118-5.86636a9.27745,9.27745,0,0,0-6.566,2.523,8.44511,8.44511,0,0,0-2.64468,6.38353,7.18728,7.18728,0,0,0,1.5505,4.77219,12.80117,12.80117,0,0,0,4.19517,2.91847q1.06277.51813,2.09709,1.00389,1.03334.48576,2.06765,1.00292,2.67461,1.58091,2.6751,3.40422,0,3.16183-3.466,3.16183a4.231,4.231,0,0,1-2.97931-1.155,12.667,12.667,0,0,1-1.85373-2.70552l-5.83692,2.70552q3.10148,7.26575,10.54827,7.26476a10.76085,10.76085,0,0,0,7.41785-2.73594,9.32111,9.32111,0,0,0,3.16085-7.17349,7.3879,7.3879,0,0,0-1.88415-5.31977Q113.29251,322.72662,107.85155,320.38664Z"/><polygon class="a" points="130.256 298.621 123.416 298.621 123.416 309.473 120.498 309.473 120.498 315.857 123.416 315.857 123.416 339.082 130.256 339.082 130.256 315.857 135.576 315.857 135.576 309.473 130.256 309.473 130.256 298.621"/><path class="a" d="M158.49681,332.6071a6.9996,6.9996,0,0,1-4.22559,1.21586,7.22863,7.22863,0,0,1-5.38061-2.1285,8.9893,8.9893,0,0,1-2.37088-5.80552H167.738l.03042-1.61134q0-7.32609-3.76927-11.46091-3.80069-4.16425-10.33631-4.16376a13.41748,13.41748,0,0,0-10.39617,4.28545q-3.89194,4.34825-3.891,11.36964,0,7.08321,4.01264,11.36965a13.93723,13.93723,0,0,0,10.63954,4.255,17.93615,17.93615,0,0,0,4.28644-.48576,12.81131,12.81131,0,0,0,3.678-1.53577,15.005,15.005,0,0,0,3.19225-2.6751,22.94562,22.94562,0,0,0,2.8272-3.90568l-5.77608-3.22267A17.29774,17.29774,0,0,1,158.49681,332.6071Zm-10.54827-14.59134a6.93363,6.93363,0,0,1,1.53479-1.7183,6.725,6.725,0,0,1,1.99111-1.09418,7.08993,7.08993,0,0,1,2.34047-.37978q5.47286,0,6.90068,5.47188H146.97506A7.96587,7.96587,0,0,1,147.94854,318.01576Z"/><path class="a" d="M185.39987,309.41247a13.092,13.092,0,0,0-3.34436,2.70552v-2.64468h-6.83886v29.60858h6.83886V323.73q0-8.45069,5.59356-8.4502a6.52726,6.52726,0,0,1,3.79969,1.39839l3.13142-6.26282a11.05325,11.05325,0,0,0-5.65441-1.76246A7.67264,7.67264,0,0,0,185.39987,309.41247Z"/><polygon class="a" points="253.25 324.764 219.021 288.954 219.021 339.082 226.103 339.082 226.103 306.22 260.333 341.94 260.333 292.146 253.25 292.146 253.25 324.764"/><path class="a" d="M285.07808,308.65293a15.38161,15.38161,0,0,0-11.18712,4.49839,14.71541,14.71541,0,0,0-4.58966,10.91333,15.33625,15.33625,0,0,0,4.49839,11.30881,15.0475,15.0475,0,0,0,11.1567,4.55924,15.694,15.694,0,0,0,11.33923-4.468,15.85532,15.85532,0,0,0,.03042-22.283A15.46833,15.46833,0,0,0,285.07808,308.65293Zm6.41394,22.5862a9.21379,9.21379,0,0,1-12.82789-.03042,9.98441,9.98441,0,0,1-2.37187-7.02237,9.51133,9.51133,0,0,1,2.43271-6.74858,9.10068,9.10068,0,0,1,12.76705,0,11.116,11.116,0,0,1,0,13.80137Z"/><polygon class="a" points="315.538 298.621 308.699 298.621 308.699 309.473 305.78 309.473 305.78 315.857 308.699 315.857 308.699 339.082 315.538 339.082 315.538 315.857 320.858 315.857 320.858 309.473 315.538 309.473 315.538 298.621"/><polygon class="a" points="346.028 339.082 353.111 339.082 353.111 316.739 368.888 316.739 368.888 310.082 353.111 310.082 353.111 298.803 369.465 298.803 369.465 292.146 346.028 292.146 346.028 339.082"/><path class="a" d="M390.19774,308.65293a15.38481,15.38481,0,0,0-11.18712,4.49839,14.71541,14.71541,0,0,0-4.58966,10.91333,15.33622,15.33622,0,0,0,4.4984,11.30881,15.05055,15.05055,0,0,0,11.15669,4.55924,15.694,15.694,0,0,0,11.33923-4.468,15.85532,15.85532,0,0,0,.03042-22.283A15.46833,15.46833,0,0,0,390.19774,308.65293Zm6.414,22.5862a9.2138,9.2138,0,0,1-12.8279-.03042,9.984,9.984,0,0,1-2.37088-7.02237,9.5107,9.5107,0,0,1,2.43172-6.74858,9.10069,9.10069,0,0,1,12.76706,0,11.11244,11.11244,0,0,1,0,13.80137Z"/><path class="a" d="M431.69213,326.466q0,7.357-5.8065,7.357-5.80552,0-5.80553-7.357V309.47331h-6.83984v17.14475a16.94022,16.94022,0,0,0,.85081,6.14114,10.48587,10.48587,0,0,0,3.00972,4.16475,14.375,14.375,0,0,0,17.60107,0,10.32733,10.32733,0,0,0,2.94889-4.16475,19.10384,19.10384,0,0,0,.88123-6.14114V309.47331h-6.83985Z"/><path class="a" d="M462.12208,308.65293a11.20961,11.20961,0,0,0-8.08613,3.55632v-2.73594h-6.87027v29.60858H454.036V324.79476q0-5.53321,1.39839-7.75248,1.42783-2.24919,4.833-2.2492,3.13092,0,4.31685,1.7026,1.21587,1.67219,1.21587,6.0489v16.53731h6.87026V320.93324q0-6.26184-2.49257-9.0282A10.2167,10.2167,0,0,0,462.12208,308.65293Z"/><path class="a" d="M503.13072,287.73792v25.17a12.79154,12.79154,0,0,0-19.24283.21294,15.954,15.954,0,0,0-3.98222,11.06544,16.502,16.502,0,0,0,3.98222,11.3088,13.02745,13.02745,0,0,0,10.092,4.43756,12.76146,12.76146,0,0,0,9.15087-3.9518v3.101H510v-51.344Zm-1.91555,43.47079A7.84888,7.84888,0,0,1,495.075,333.823a7.46685,7.46685,0,0,1-5.89777-2.70552,10.31066,10.31066,0,0,1-2.27962-6.9311,9.85779,9.85779,0,0,1,2.34046-6.68774,7.5626,7.5626,0,0,1,5.89777-2.6751,7.7371,7.7371,0,0,1,6.07932,2.64468,11.25383,11.25383,0,0,1,0,13.74053Z"/></svg>