<svg xmlns="http://www.w3.org/2000/svg" xmlns:xlink="http://www.w3.org/1999/xlink" viewBox="0 0 1377.51952 858.48984"><defs><style>.a{fill:#bad8d7;}.b{fill:#59a5a1;}.c,.g,.p,.q,.r,.s,.t,.u,.v,.w{fill:#fff;}.c,.e{opacity:0.07;}.d{fill:#8c8476;}.f{fill:#fffa97;}.h{fill:#dadade;}.i{fill:#0a234b;}.j{fill:#c13635;}.k{fill:#1e262d;}.l{opacity:0.15;}.m{opacity:0.4;fill:url(#a);}.n{fill:#3f3d39;}.o{opacity:0.45;}.p{opacity:0.8;}.q{opacity:0.6;}.r{opacity:0.75;}.s{opacity:0.35;}.t{opacity:0.7;}.u{opacity:0.2;}.v{opacity:0.5;}.w{opacity:0.9;}</style><linearGradient id="a" x1="0.86283" y1="219.72398" x2="684.20434" y2="219.72398" gradientUnits="userSpaceOnUse"><stop offset="0" stop-color="#fff" stop-opacity="0"/><stop offset="1" stop-color="#fff"/></linearGradient></defs><rect class="paint-paint-a" x="0.86283" y="0.74492" width="1378.25293" height="588.55014"/><rect class="paint-paint-b" x="0.75976" y="589.29507" width="1378" height="229.44986"/><rect class="paint-paint-c" x="0.75976" y="589.29507" width="1378" height="157.18765"/><rect class="paint-paint-c" x="0.75976" y="589.64938" width="1378" height="78.59382"/><rect class="paint-paint-d" x="-0.49317" y="818.74492" width="1378.25293" height="40"/><g class="paint-paint-e"><path d="M482.14355,512.63868a45.13086,45.13086,0,0,0-44.78116-51.19784,44.97245,44.97245,0,0,0-23.64766,6.67986c-7.48479-31.18582-39.88908-54.64722-78.73023-54.64722-32.63643,0-60.72793,16.56555-73.31005,40.35912-7.11552-8.17321-16.40327-13.13277-26.57319-13.13277-17.971,0-33.201,15.45688-38.50963,36.85073-11.72424-10.27992-27.07047-13.38293-38.91881-6.54208-9.36673,5.4078-14.44366,15.81595-14.658,27.49452a66.58162,66.58162,0,0,0-23.96356-4.27016c-19.50367,0-36.1213,7.66574-42.45315,18.40584Z"/><path d="M689.12438,303.42457c5.2752-9.56445,19.94345-16.44811,37.22586-16.44811a59.24609,59.24609,0,0,1,18.853,2.96779c4.41094-22.00446,37.19082-39.09971,76.9958-39.09971a132.34025,132.34025,0,0,1,23.22253,2.01843c8.75089-29.65387,39.45045-49.57942,72.81787-45.63566,21.56228,2.54844,39.42724,14.50175,49.569,30.94a38.31813,38.31813,0,0,1,17.76028-9.445c24.46407-5.52031,50.33126,13.69181,58.00945,42.96688a53.85945,53.85945,0,0,1,30.71867-9.23048c26.08882,0,47.23786,17.17226,47.23786,38.3554,0,.87837-.0496,1.74687-.12106,2.61044Z"/></g><path class="paint-paint-f" d="M688.75959,188.926c-15.33367,0-27.76376,13.969-27.76376,31.20075v49.52346h55.52786V220.12679C716.52369,202.89508,704.09326,188.926,688.75959,188.926Z"/><path class="paint-paint-g" d="M689.176,205.1684c-4.56747,0-8.27,11.15835-8.27,24.92291v39.55894h16.5402V230.09131C697.44612,216.32675,693.74344,205.1684,689.176,205.1684Z"/><rect class="paint-paint-h" x="627.67911" y="275.74353" width="122.1613" height="17.45161"/><path class="paint-paint-i" d="M749.44378,194.03824V183.72593h-3.173v-8.72581h-6.70045l-49.42236-35.107V112.333h-2.77639v27.56015l-49.42235,35.107h-6.70045v8.72581h-3.173v10.31231H635.81V199.591h-5.94942v7.1393H635.81v38.07625h-4.56122v30.937h115.022v-30.937h-4.56122V206.73033H747.659V199.591h-5.94942v-5.55279Zm-92.21592,0H684.9918V199.591H657.22786Zm27.76394,12.69209v38.07625H657.22786V206.73033Zm7.53592,0h27.76393v38.07625H692.52772Zm0-7.1393v-5.55279h27.76393V199.591Zm-37.67962-5.55279V199.591H640.56951v-5.55279Zm-14.27859,12.69209H654.8481v38.07625H640.56951Zm82.10191,38.07625V206.73033H736.95v38.07625ZM736.95,199.591H722.67142v-5.55279H736.95Z"/><rect x="708.59114" y="317.78605" width="15.8651" height="26.17742"/><rect x="718.1102" y="511.34032" width="15.8651" height="26.17742"/><polygon class="paint-paint-j" points="617.125 768.355 760.394 768.355 755.351 680.304 622.168 680.304 617.125 768.355"/><polygon class="paint-paint-j" points="738.724 389.972 733.182 293.195 644.337 293.195 638.795 389.972 738.724 389.972"/><polygon class="paint-paint-h" points="633.253 486.749 744.267 486.749 738.724 389.972 638.795 389.972 633.253 486.749"/><polygon class="paint-paint-j" points="633.253 486.749 627.71 583.527 749.809 583.527 744.267 486.749 633.253 486.749"/><polygon class="paint-paint-h" points="627.71 583.527 622.168 680.304 755.351 680.304 749.809 583.527 627.71 583.527"/><rect class="paint-paint-k" x="708.19451" y="317.78605" width="15.8651" height="26.17742"/><rect class="paint-paint-k" x="717.71357" y="511.34032" width="15.8651" height="26.17742"/><rect class="paint-paint-k" x="653.4599" y="414.56318" width="15.8651" height="26.17742" transform="translate(1322.78491 855.30379) rotate(-180)"/><rect class="paint-paint-k" x="643.94084" y="608.11745" width="15.8651" height="26.17742" transform="translate(1303.74678 1242.41232) rotate(-180)"/><rect class="paint-paint-k" x="669.72163" y="666.02508" width="38.07625" height="102.32992"/><polygon class="paint-paint-l" points="733.182 293.195 749.841 293.195 749.841 275.744 706.211 275.744 706.211 768.355 707.798 768.355 760.394 768.355 733.182 293.195"/><polygon class="paint-paint-m" points="684.204 244.748 0.863 349.792 0.863 89.656 684.204 194.7 684.204 244.748"/><polygon class="paint-paint-n" points="435.082 818.745 921.082 818.745 895.822 769.455 844.629 737.266 749.716 752.856 622.317 733.745 484.854 758.893 441.244 787.059 435.082 818.745"/><g class="paint-paint-o"><polygon class="paint-paint-p" points="441.244 787.059 473.951 793.597 435.082 818.745 441.244 787.059"/><polygon class="paint-paint-q" points="499.073 818.745 473.951 793.597 435.082 818.745 499.073 818.745"/><polygon class="paint-paint-r" points="484.854 758.893 473.951 793.597 499.073 818.745 484.854 758.893"/><polygon class="paint-paint-s" points="551.924 776.245 499.073 818.745 607.979 818.745 611.983 802.902 600.039 771.467 551.924 776.245"/><polygon class="paint-paint-q" points="484.854 758.893 551.924 776.245 499.073 818.745 484.854 758.893"/><polygon class="paint-paint-t" points="622.317 733.745 600.039 771.467 611.983 802.902 622.317 733.745"/><polygon class="paint-paint-u" points="676.845 776.245 611.983 802.902 607.979 818.745 711.279 818.745 726.126 777.502 676.845 776.245"/><polygon class="paint-paint-s" points="622.317 733.745 676.845 776.245 611.983 802.902 622.317 733.745"/><polygon class="paint-paint-s" points="749.716 752.856 726.126 777.502 711.279 818.745 774.006 818.745 749.716 752.856"/><polygon class="paint-paint-u" points="810.5 766.437 766.799 799.196 774.006 818.745 831.395 818.745 810.5 766.437"/><polygon class="paint-paint-q" points="749.716 752.856 810.5 766.437 766.799 799.196 749.716 752.856"/><polygon class="paint-paint-t" points="844.629 737.266 810.5 766.437 831.395 818.745 844.629 737.266"/><path class="paint-paint-v" d="M886.91578,785.80064l-55.5205,32.94428h89.687Z"/><polygon class="paint-paint-p" points="844.629 737.266 886.916 785.801 831.395 818.745 844.629 737.266"/><polygon class="paint-paint-t" points="895.822 769.455 886.916 785.801 921.082 818.745 895.822 769.455"/><polygon class="paint-paint-p" points="484.854 758.893 622.317 733.745 600.039 771.467 551.924 776.245 484.854 758.893"/><polygon class="paint-paint-q" points="622.317 733.745 676.845 776.245 726.126 777.502 749.716 752.856 622.317 733.745"/><polygon class="paint-paint-p" points="749.716 752.856 844.629 737.266 810.5 766.437 749.716 752.856"/><polygon class="paint-paint-w" points="484.854 758.893 441.244 787.059 473.951 793.597 484.854 758.893"/><polygon class="paint-paint-w" points="844.629 737.266 895.822 769.455 886.916 785.801 844.629 737.266"/></g></svg>