<svg xmlns="http://www.w3.org/2000/svg" viewBox="0 0 200 200"><defs><style>.a{fill:#404247;}</style></defs><path class="a" d="M81.43891,111.84273q-5.95034-5.16917-21.27215-5.17063H50.54913v36.03941h11.7364q12.87685,0,18.90881-4.78463a16.19215,16.19215,0,0,0,6.35734-13.119A16.431,16.431,0,0,0,81.43891,111.84273Z"/><path class="a" d="M72.02544,87.18641q4.93032-4.437,4.93084-13.08075,0-8.41032-5.05312-12.77185-5.05473-4.35927-14.67076-4.36034H50.54913V91.62385h5.94955Q67.093,91.62385,72.02544,87.18641Z"/><path class="a" d="M176.22222,2H23.77778A21.778,21.778,0,0,0,2,23.77778V176.22222A21.778,21.778,0,0,0,23.77778,198H176.22222A21.77767,21.77767,0,0,0,198,176.22222V23.77778A21.77767,21.77767,0,0,0,176.22222,2ZM95.86509,149.1167A34.59689,34.59689,0,0,1,81.76483,157.374q-8.55825,2.23986-21.43537,2.23813H31.559V40.45883H50.46778q12.632,0,20.13116,1.85212c.54444.13292,1.07772.27781,1.60409.43067L93.69476,82.29439a28.78036,28.78036,0,0,1-9.07744,13.18789,30.293,30.293,0,0,1,15.81175,11.344,32.23838,32.23838,0,0,1-4.564,42.29041Zm32.89476-35.91764v46.31526H110.54276V108.21026l36.78988-67.82267,21.10839.07124Z"/></svg>