<svg xmlns="http://www.w3.org/2000/svg" viewBox="0 0 100 100"><defs><style>.a{fill:#304050;}</style></defs><path class="a" d="M24.65107,36.698,47.68086,55.44342a3.74231,3.74231,0,0,0,4.63824,0L75.349,36.69952V33.99017H24.65107Z"/><path class="a" d="M50,61.593a8.986,8.986,0,0,1-5.68579-2.0116L24.65107,43.57648V66.00983H75.349V43.57764L55.68574,59.58142A8.98579,8.98579,0,0,1,50,61.593Z"/><path class="a" d="M50,0a50,50,0,1,0,50,50A50,50,0,0,0,50,0ZM80.68556,31.32184V68.6781a2.6668,2.6668,0,0,1-2.66834,2.66834H21.9828a2.6668,2.6668,0,0,1-2.66834-2.66834V31.32184a2.66761,2.66761,0,0,1,2.66834-2.66828H78.01722A2.66761,2.66761,0,0,1,80.68556,31.32184Z"/></svg>