<svg xmlns="http://www.w3.org/2000/svg" viewBox="0 0 64 64"><defs><style>.a{fill:#ffffff;}.b{fill:#2990d0;}.c{fill:#005ead;}.d{fill:#187fc4;}.e{fill:#036eb8;}</style></defs><rect class="a" width="64" height="64" rx="12"/><polygon class="b" points="41.692 36.805 45.246 28.225 37.882 10.447 30.774 10.447 41.692 36.805"/><polygon class="c" points="55.388 10.447 37.534 53.552 44.642 53.552 62.497 10.447 55.388 10.447"/><path class="d" d="M29.85272,33.94189l-.90777.71363a14.96477,14.96477,0,0,1-3.71173,2.13818l-1.07288.427.57611,1.001a5.84934,5.84934,0,0,1-5.07306,8.76367H4.22363L1.50342,53.55273h18.16A12.42066,12.42066,0,0,0,30.42926,34.94238Z"/><path class="e" d="M20.05255,10.45337l-.68866-.01953-2.72613,6.58105h3.056a5.85083,5.85083,0,0,1,0,11.70166h-7.903L9.07062,35.28369H19.69379a12.41775,12.41775,0,0,0,.35876-24.83032Z"/></svg>