<svg xmlns="http://www.w3.org/2000/svg" viewBox="0 0 100 100"><defs><style>.a{fill:#304050;}</style></defs><path class="a" d="M50,0a50,50,0,1,0,50,50A50,50,0,0,0,50,0Zm7.60724,68.26776c1.50079,1.29376,2.79455,3.77777,2.79455,7.659,0,5.43133-.04974,9.80963-.05163,11.29407a38.46036,38.46036,0,0,1-20.59686.02941c-.00184-1.04632-.05152-4.24536-.05152-7.64923C29.3,81.51575,26.609,77.06525,25.781,74.73651c-.46576-1.19025-2.484-4.86456-4.24353-5.84778-1.449-.77624-3.519-2.691-.05176-2.74273,3.26025-.0517,5.58905,3.00152,6.36529,4.24347,3.726,6.26178,9.67719,4.50231,12.05774,3.41552A8.70856,8.70856,0,0,1,42.548,68.26776c-9.21154-1.035-18.837-4.60577-18.837-20.44122a16.112,16.112,0,0,1,4.24347-11.12628,14.87706,14.87706,0,0,1,.414-10.971s3.46728-1.08673,11.385,4.24353a39.03119,39.03119,0,0,1,20.7,0c7.91779-5.38208,11.385-4.24353,11.385-4.24353a14.8764,14.8764,0,0,1,.414,10.971A16.01821,16.01821,0,0,1,76.496,47.82654C76.496,63.71375,66.81873,67.23279,57.60724,68.26776Z"/></svg>