<svg xmlns="http://www.w3.org/2000/svg" viewBox="0 0 100 100"><defs><style>.a{fill:#304050;}</style></defs><path class="a" d="M63.34155,25.98523H36.6585A10.68543,10.68543,0,0,0,25.98529,36.65845v26.683A10.68457,10.68457,0,0,0,36.6585,74.01471H63.34155A10.68375,10.68375,0,0,0,74.01477,63.34149v-26.683A10.68462,10.68462,0,0,0,63.34155,25.98523ZM60.83221,57.833a13.24552,13.24552,0,0,1-8.76062,5.248,13.43153,13.43153,0,0,1-1.9856.14594A13.34093,13.34093,0,1,1,60.83221,57.833Zm6.2981-21.495a3.07935,3.07935,0,0,1-.56025.8808,2.70568,2.70568,0,0,1-3.78881,0,3.08194,3.08194,0,0,1-.56025-.8808,2.21912,2.21912,0,0,1-.21362-1.01367,2.66835,2.66835,0,1,1,5.33661,0A2.66783,2.66783,0,0,1,67.13031,36.338Z"/><path class="a" d="M51.28985,41.96643a8.00427,8.00427,0,1,0-.00134,15.83521,8.00408,8.00408,0,0,0,.00134-15.83521Z"/><path class="a" d="M50,0a50,50,0,1,0,50,50A50,50,0,0,0,50,0ZM79.35137,63.34149A16.02732,16.02732,0,0,1,63.34155,79.35132H36.6585A16.02729,16.02729,0,0,1,20.64868,63.34149v-26.683A16.02732,16.02732,0,0,1,36.6585,20.64862H63.34155A16.02736,16.02736,0,0,1,79.35137,36.65845Z"/></svg>